# xmcd
#
# Track frame offsets:
#	150
#	13074
#	28206
#	50258
#	68455
#	83241
#	99053
#	115743
#	128009
#	143570
#	161669
#	175691
#	198543
#	216693
#
# Disc length: 3245 seconds
#
# Revision: 0
# Processed by: cddbd v1.4PL0 Copyright (c) Steve Scherf et al.
# Submitted via: dBpowerAMP V4.0
#
DISCID=b80cab0e
DTITLE=Sky High - On The Cover-25 Years of Madness Disc 1
DYEAR=2000
DGENRE=Blues
TTITLE0=Track01The House Is Rockin
TTITLE1=Track02´Let´s Go Crazy
TTITLE2=Track03 Bad Moon Rising (Bad Moon Blues)
TTITLE3=Track04 Can You Forgive Her ?
TTITLE4=Track05 It´s Alright,Baby´s Comin´Back
TTITLE5=Track06 Tell The Truth
TTITLE6=Track07 Ain´t No Mountain High Enough
TTITLE7=Track08 Give Me All Your Lovin
TTITLE8=Track09´Freedom For The Stallion
TTITLE9=Track10 Kingsize Boogieman 
TTITLE10=Track11 In My Chair
TTITLE11=Track12 I Am The Walrus (Eggman Revisited)
TTITLE12=Track13 The Wind Cries Mary
TTITLE13=Track14 Dust My Hidewalk(Medley:Dust My Broom,Walking By Myself;Hideaway)
EXTD=
EXTT0=
EXTT1=
EXTT2=
EXTT3=
EXTT4=
EXTT5=
EXTT6=
EXTT7=
EXTT8=
EXTT9=
EXTT10=
EXTT11=
EXTT12=
EXTT13=
PLAYORDER=
